<svg xmlns="http://www.w3.org/2000/svg" width="24" height="24" viewBox="0 0 24 24"><!-- SAM GH icon solar_plural_analyse --><g vector-effect="non-scaling-stroke"><g transform="translate(5 -1.5) scale(0.78)"><polygon points="10,5 17,8.5 17,16 10,12.5" fill="#81BC44" stroke="#111111" stroke-width="1.41" stroke-linejoin="round"/><circle cx="4" cy="4" r="2.4" fill="#F6C90E" stroke="#111111" stroke-width="1.41"/><path d="M5.2 7.6L7.93 9.09" fill="none" stroke="#111111" stroke-width="1.67" stroke-linecap="round" stroke-linejoin="round"/><polygon points="9.6,10 8.5,8.06 7.37,10.12" fill="#111111" stroke="#111111" stroke-width="0.77" stroke-linejoin="round"/><path d="M7.8 4.6L10.75 6.27" fill="none" stroke="#111111" stroke-width="1.67" stroke-linecap="round" stroke-linejoin="round"/><polygon points="12.4,7.2 11.33,5.24 10.17,7.29" fill="#111111" stroke="#111111" stroke-width="0.77" stroke-linejoin="round"/></g><g transform="translate(-0.5 3.6) scale(0.78)"><polygon points="10,5 17,8.5 17,16 10,12.5" fill="#81BC44" stroke="#111111" stroke-width="1.41" stroke-linejoin="round"/><circle cx="4" cy="4" r="2.4" fill="#F6C90E" stroke="#111111" stroke-width="1.41"/><path d="M5.2 7.6L7.93 9.09" fill="none" stroke="#111111" stroke-width="1.67" stroke-linecap="round" stroke-linejoin="round"/><polygon points="9.6,10 8.5,8.06 7.37,10.12" fill="#111111" stroke="#111111" stroke-width="0.77" stroke-linejoin="round"/><path d="M7.8 4.6L10.75 6.27" fill="none" stroke="#111111" stroke-width="1.67" stroke-linecap="round" stroke-linejoin="round"/><polygon points="12.4,7.2 11.33,5.24 10.17,7.29" fill="#111111" stroke="#111111" stroke-width="0.77" stroke-linejoin="round"/></g></g><circle cx="19" cy="19" r="5" fill="#FFFFFF"/><circle cx="19" cy="19" r="4.2" fill="#111111"/><path d="M17.2 21.2v-1.8M19 21.2v-4.2M20.8 21.2v-2.8" fill="none" stroke="#FFFFFF" stroke-width="1.3" stroke-linecap="round" stroke-linejoin="round"/></svg>
